<svg width="692" height="162" viewBox="0 0 692 162" fill="none" xmlns="http://www.w3.org/2000/svg">
<path fill-rule="evenodd" clip-rule="evenodd" d="M282 0.187317L281.425 0L274.433 5.2761L271.21 7.21171L266.11 11.3171L265.157 11.7073L256.273 19.5122L246.043 27.3171L244.167 27.5044L238.295 25.7561L230.35 24.3824H226.007L222.405 25.5688L220.513 26.9268L219 29.2683V31.6098L219.56 32.5932L222.027 34.7317L226.188 36.6829L227.702 37.8537L235.45 42.1463L237.917 43.1141L239.052 44.0976L244.923 47.4224L246.997 48L250.78 47.4224L253.05 45.8615L256.273 42.1463L259.482 36.8702L265.353 28.4878L267.23 24.7883L275.553 12.0976L277.642 7.80488L278.777 6.63415L279.337 5.2761L281.803 1.74829L282 0.187317Z" fill="#00E5A0"/>
<path fill-rule="evenodd" clip-rule="evenodd" d="M193 36.5457L191.67 35.3671L185.357 33.4029L183.263 32.2243L176.384 29.8671L171.4 27.51L164.72 25.5457L161.663 25.1529L159.752 24.1629L147.905 23L133 24.1629L124.409 25.9386L122.682 26.7243L120.771 26.9286L115.604 28.6886L112.547 29.2857L111.217 30.0714L106.066 31.6429L103.574 33.01L94.0199 35.76L89.4339 37.9286L87.7218 38.3057L85.7957 39.5L82.9372 40.2857L76.6238 42.8314L74.3309 43.2243L58.4788 48.9286L55.2227 49.51L52.5629 50.6886L50.6368 50.8771L48.9247 51.8671L40.5171 53.8314L35.7477 54.2243L33.0573 55.4029L30.9631 55.5914L30.1987 56L30 57.1629L30.9631 58.1529L34.2191 59.52L37.4598 60.3057L39.7528 61.5L51.0342 64.4386L58.6775 66.01L69.5615 67L83.3193 66.2143L92.1091 64.0457L94.0199 63.26L96.695 62.8671L98.2237 61.8771L100.715 61.2957L105.867 58.9386L108.542 58.3571L110.652 56.9743L117.531 53.8314L120.19 53.2343L126.122 50.6886L148.287 43.02L152.292 42.4386L156.114 41.26L159.568 40.8671L161.464 40.0814L167.395 39.2957L171.599 38.3057L183.629 37.7243L186.885 37.1429H192.618L193 36.5457Z" fill="#00E5A0"/>
<path fill-rule="evenodd" clip-rule="evenodd" d="M227 49.9014L222.816 47.9351L218.251 47.3577L214.828 46.3745L209.32 46L193.146 46.1873L189.723 46.9675L179.452 48.138L176.029 49.1211L172.986 49.4957L171.282 50.2759L168.421 50.869L159.672 53.8028L157.01 54.1774L153.206 55.5507L151.106 56.7211L148.824 57.2985L140.09 61.0126L137.808 61.6056L135.708 62.9633L132.848 63.7436L121.634 69.4085L114.407 72.5296L112.505 72.9041L110.025 74.2774L108.321 74.6676L99.5722 78.3661L95.7684 79.3493L88.1608 82.0803L75.6082 84.8112L54.3068 86.3718L32.2447 86.5747L23.1156 87.1521L19.8899 87.9324L16.0861 88.3225L13.0431 89.4929L10.9433 89.6958L10.1826 90.0704L10 91.0535L10.7608 91.8338L12.4649 92.2239L15.3253 93.9718L18.9314 94.752L27.4975 98.4662L31.4839 99.4337L41.7542 103.335L44.5995 103.928L46.6992 104.896L50.6856 105.676L52.9679 106.659L58.491 107.439L60.9711 108.22L68.1831 109H76.7493L85.4981 108.22L92.5276 106.862L95.0076 105.879L98.6137 105.099L116.111 97.8732L121.437 94.752L124.677 93.3944L129.622 90.2732L131.722 89.4929L138.173 85.2014L140.273 84.4211L143.316 82.2675L153.023 77.2113L154.728 75.838L158.912 74.0902L163.674 71.3436L165.378 70.969L167.843 69.4085L172.043 67.8479L173.747 66.6619L179.452 63.9465L183.256 62.7605L184.397 61.9802L188.779 60.4196L201.712 56.7211L203.797 55.7379L208.163 54.9576L210.446 53.9901L215.208 53.3971L218.814 52.4295L226.057 51.2591L226.817 50.869L227 49.9014Z" fill="#00E5A0"/>
<path fill-rule="evenodd" clip-rule="evenodd" d="M255 64.1531L254.817 63.3673L253.478 62.3929L248.347 62L235.026 62.2043L219.422 63.1787L204.198 66.3219L196.388 69.0721L193.739 69.465L184.026 73.5826L181.743 74.1798L166.701 81.0633L155.862 87.1454L153 89.1099L151.478 89.7071L149.955 90.87L148.433 91.4672L145.205 93.8246L143.104 94.6104L139.299 97.3607L137.974 97.7536L136.832 98.728L131.884 101.085L130.743 102.075L129.22 102.657L128.079 103.647L119.705 108.566L106.765 114.444L104.101 115.041L100.676 116.613L92.5003 118.97L82.4069 120.934L76.6979 121.327H65.4627L58.8098 120.73L56.7242 119.944L54.2427 119.756L49.2949 118.373L46.2501 117.996L43.3881 117.006L34.2537 115.434L28.56 114.852H18.2687L11.4179 115.23L9.33224 116.015L5.72418 116.613L0.761194 118.373L0 119.363V120.353L0.578506 121.139L4.76507 122.899L9.89552 125.854L11.6158 126.231L17.1421 129.185L21.7093 130.945L32.7313 136.855L34.4516 137.232L42.6269 141.569L44.7278 142.151L50.2388 144.901L52.157 146.284L53.8621 146.661L62.8137 151.187L64.7015 151.58L66.2239 152.57L67.7463 152.948L69.6645 154.142L76.1194 156.877L79.1642 157.662L81.2651 158.653L84.1272 159.234L86.974 160.428H88.2985L92.1045 161.403L98.0113 162L107.724 161.796L115.336 160.428L125.597 157.474L134.929 153.938L140.456 151.376L142.739 150.795L144.261 149.805L146.149 149.427L148.067 148.233L153.761 146.284L162.332 142.151L164.616 141.569L173.75 137.436L180.22 135.283L181.925 134.089L188.593 131.354L191.456 130.568L193.739 129.374L196.023 128.792L200.392 126.639L203.239 125.854L208.963 123.292L216.575 120.934L227.597 116.613L239.593 113.077L245.104 110.719L246.064 109.54L246.825 107.372L248.728 99.3252L249.108 96.182L249.87 94.2175L249.672 91.6558L248.149 91.0743L241.299 91.4672L239.213 92.0644L230.459 93.2274L227.232 94.2175L224.37 94.6104L221.705 95.5848L217.899 96.3706L215.814 97.3607L214.093 97.565L211.049 98.728L207.623 99.3252L202.676 100.897L200.955 101.871L198.108 102.657L193.161 104.826L190.116 105.612L188.015 106.79L170.325 113.281L166.138 113.862L164.418 113.469L163.657 112.495L163.855 111.709L166.899 108.755L176.414 103.066L183.448 99.5138L185.549 98.9323L186.493 98.1465L188.411 97.565L192.78 95.2076L195.627 94.4218L201.351 91.6558L221.142 85.5738L232.743 83.4207L236.168 82.4306L249.306 80.859L251.011 80.2775L251.59 79.2874L252.153 76.3486L253.295 73.2054L253.676 70.4394L254.817 66.7148L255 64.1531Z" fill="#00E5A0"/>
<path fill-rule="evenodd" clip-rule="evenodd" d="M305.948 52.3953L305.183 53.5814L305 57.3293L305.183 102.605L305.948 103L338.434 102.81L339 101.814V96.6744L338.236 95.4884H315.121L314.173 94.1126V82.2521L314.937 81.0502H333.466L334.23 80.6707L334.612 79.6744L334.811 75.7209L334.612 74.7247L334.047 74.1395L332.319 73.7442H314.937L314.356 72.9535L314.54 59.7014L315.121 59.3219L338.052 59.5116L338.633 59.1163L339 57.9302L338.817 53.3758L338.434 52.5851L337.471 52.2056L310.718 52L305.948 52.3953Z" fill="white"/>
<path fill-rule="evenodd" clip-rule="evenodd" d="M377.438 67H370.606L369.088 67.9704L365.292 78.1443L364.153 80.3043L363.774 82.0574L361.497 86.753L360.54 90.4783L359.978 91.073L359.022 90.2904L358.46 89.1009L357.898 86.753L350.307 68.1739L348.971 67.1878L342.139 67L341.38 67.3913L341 68.3774L341.38 70.1304L342.518 71.8835L342.898 73.8557L343.657 74.8261L344.416 77.1739L346.876 82.0574L347.635 84.8122L351.43 92.8261L352.007 95.1739L355.423 102.609L356.38 103H362.635L363.394 102.812L364.153 102.03L366.81 95.7687L368.708 89.8835L371.365 84.4052L372.124 81.6817L376.117 73.4487L376.679 71.1009L377.818 69.3478L378 67.9704L377.438 67Z" fill="white"/>
<path fill-rule="evenodd" clip-rule="evenodd" d="M384.695 67L383.57 67.3998L383 68.3533V100.062L383.39 101.416L384.14 102H391.25L392 100.831V68.1687L390.89 67H384.695Z" fill="white"/>
<path fill-rule="evenodd" clip-rule="evenodd" d="M385.086 51.3692L383.342 52.5385L382.386 53.6769L382 55.0308L382.386 58.2923L384.314 60.0308L386.243 60.8L387.971 61L389.914 60.4154L391.827 58.6923L392.799 56.9538L393 55.0308L391.457 52.5385L388.742 51H386.243L385.086 51.3692Z" fill="white"/>
<path fill-rule="evenodd" clip-rule="evenodd" d="M432.859 50H426.011L425.052 51.1802L425.25 67.6718L424.687 68.8365H423.728L420.685 66.8954L417.443 66.119H414.598L410.793 66.7091L407.37 68.2619L404.707 70.0012L402.622 72.3305L400.902 75.2499L399.761 77.9519L399 82.8125V88.0457L399.943 93.2945L401.465 96.5866L402.804 98.5432L405.087 100.469L408.13 102.224L412.117 103L417.078 102.798L418.783 102.425L422.207 100.873L424.489 99.1178L425.448 99.6924L426.011 101.835L427.335 102.612H432.661L433.62 101.835L434 82.2379V51.5529L433.62 50.5901L432.859 50ZM419.361 73.2933L423.165 74.8462L425.052 76.9892V90.7788L423.165 93.2945L421.643 94.4591L418.783 95.8101L417.261 96.2139L413.639 96.012L410.991 94.661L408.891 91.5552L407.948 86.6947L408.13 82.6106L408.709 79.7067L409.47 77.5793L411.752 74.8462L415.557 73.2933H419.361Z" fill="white"/>
<path fill-rule="evenodd" clip-rule="evenodd" d="M451.448 66.7708L446.487 69.6692L443.633 72.5521L442.473 74.0937L440.763 77.7475L440 82.0025V86.8125L440.58 90.2812L442.473 94.9062L445.525 98.56L448.578 100.687L451.066 101.844L454.317 102.615L457.935 103L464.605 102.229L471.871 98.9608L472.634 98.19L472.817 96.8333L470.146 93.3646L469.001 92.5937L468.055 92.7942L465.765 94.3358L461.949 95.6771L456.607 95.8775L454.317 95.2917L452.211 94.1354L450.303 92.0233L448.777 88.3542V86.9975L449.921 86.0417L471.672 86.4271L472.237 86.2267L473 85.0858L472.817 77.3775L470.909 73.1225L469.764 71.3958L467.856 69.4687L463.079 66.7708L461.552 66.3854L456.79 66L451.448 66.7708ZM448.975 79.1042L450.685 75.6354L453.554 73.1225L455.645 72.5521H458.896L461.552 73.3229L463.475 75.065L465.002 78.7187V79.875L463.842 80.6458L449.921 80.4608L449.158 79.875L448.975 79.1042Z" fill="white"/>
<path fill-rule="evenodd" clip-rule="evenodd" d="M507.027 67.9838L504.909 66.7872L502.023 66H497.234L493.397 66.7872L489.376 69.7472L488.209 70.1409L487.442 69.3536L486.874 67.5745L485.907 66.7872L480.535 66.5983L479.583 67.3855L479.2 68.3617L479.399 73.4945L479 83.3192V101.835L479.583 102.622L487.074 102.811L488.025 102.024V78.4068L488.409 77.226L490.711 75.0689L494.748 73.0851H498.002L499.92 73.8723L502.023 75.6515L502.99 77.4306L503.374 102.024L504.525 102.811L509.329 103L510.864 102.811L511.816 102.024L512 83.7285L511.632 76.4387L511.233 74.2817L510.281 71.92L509.329 70.3455L507.027 67.9838Z" fill="white"/>
<path fill-rule="evenodd" clip-rule="evenodd" d="M524.791 55L524.028 55.3918L523.448 56.5671L522.502 63.8227L521.922 65.7659L520.579 66.7532L516.962 67.145L516 68.3203V71.8462L516.397 72.6298L517.725 73.4133H520.396L521.54 74.5886V95.1645L521.922 96.9197L522.868 99.0823L524.791 101.025L527.645 102.593L533.369 103L537.947 102.216L541 100.242V98.8786L539.855 97.3115L539.291 95.3526L538.329 94.7571H537.184L535.658 95.7444H532.606L531.842 95.3526L530.316 93.5975L530.133 74.7924L531.263 73.4133H539.092L539.657 73.0215L540.237 71.2507L540.054 67.5367L539.474 66.7532L538.329 66.3614L531.079 66.5495L530.316 65.5779L530.499 56.5671L530.133 55.3918L529.553 55H524.791Z" fill="white"/>
<path fill-rule="evenodd" clip-rule="evenodd" d="M579.228 52.3953L578.271 52L548.543 52.2056L547.401 53.186L547 90.1591L547.401 102.02L548.173 102.81L554.532 103L555.891 102.605L556.261 102.02V83.2326L556.848 82.4419L575.37 82.2521L576.141 81.8409L576.728 80.4651V75.7209L575.37 74.5349H557.233L556.462 73.5544L556.662 60.1126L557.233 59.5116L578.271 59.907L579.614 58.9107L580 57.7405V53.9767L579.228 52.3953Z" fill="white"/>
<path fill-rule="evenodd" clip-rule="evenodd" d="M586.147 49.1892L585.566 49.5991L585 51.1758V96.2993L585.765 98.8534L588.824 102.212L592.081 103L596.088 102.795L597.235 102.417L597.801 101.628L598 98.6642L597.618 96.8984L597.036 96.2993L595.706 96.1101L594.742 95.511L593.978 92.9568V50.3874L593.213 49.3942L591.882 49L586.147 49.1892Z" fill="white"/>
<path fill-rule="evenodd" clip-rule="evenodd" d="M612.736 66.7789L608.64 68.7263L606.957 69.8947L603.8 73.6025L602.311 76.9053L601 83.3238V87.4211L602.311 93.0762L603.979 96.192L606.779 99.3078L611.991 102.221L616.281 103H620.928L625.217 102.221L630.236 99.4947L633.409 95.6L634.704 92.6712L636 85.6606L635.643 80.208L634.704 76.3133L633.409 73.6025L631.353 71.0632L630.043 69.8947L625.023 66.9659L619.066 66H617.026L612.736 66.7789ZM615.894 73.1975L620.362 73.0105L623.728 74.5684L625.962 77.2947L627.064 81.1895L626.885 89.3684L626.14 90.7394L625.768 92.4842L624.085 94.4316L621.106 96.192L616.832 96.3789L615.343 95.9895L613.481 94.8211L611.619 92.6712L610.323 88.4025L609.936 82.5448L611.247 77.4973L612.915 74.9579L615.894 73.1975Z" fill="white"/>
<path fill-rule="evenodd" clip-rule="evenodd" d="M638.184 67.3913L638 69.5357L639.134 71.8835L639.9 75.2174L640.666 76.5791L644.696 89.6957L649.293 102.609L650.627 103H655.99L657.338 102.217L658.488 97.913L662.119 88.5217L663.851 81.2748L664.617 79.913H665L665.582 80.6957L665.95 82.6522L668.249 88.1304L668.647 90.4783L672.846 102.405L674.194 103H679.557L680.324 102.812L681.09 102.03L683.971 94.2035L684.154 92.4348L685.687 88.3183L686.07 86.1739L686.836 84.8122L687.602 81.4783L688.751 78.927L689.334 76.3913L690.1 75.0139L690.667 72.087L691.816 69.7391L692 67.7826L691.632 67.1878H684.737L683.971 67.7826L681.09 76.5791L680.906 78.1443L679.741 80.8991L679.174 83.8261L678.025 86.1739L677.443 89.6957L676.876 90.4783H676.493L675.543 89.1009L674.96 86.1739L673.612 83.0435L673.244 80.6957L671.512 75.2174L668.831 67.9704L667.881 67.1878L663.085 67L661.552 67.5948L659.637 72.8696L656.189 85L655.04 87.3478L654.657 90.087L654.09 90.6661H653.507L652.925 89.6957L651.791 84.6087L650.627 81.8696L648.726 73.2609L646.995 68.1739L645.263 67H638.766L638.184 67.3913Z" fill="white"/>
</svg>
