<svg version="1.1" id="Layer_1" xmlns="http://www.w3.org/2000/svg" xmlns:xlink="http://www.w3.org/1999/xlink" x="0px" y="0px"
	 width="100%" viewBox="0 0 974 964" enable-background="new 0 0 974 964" xml:space="preserve">
<path fill="#000000" opacity="1.000000" stroke="none" 
	d="
M1.000000,352.000000 
	C1.000000,234.666687 1.000000,117.833359 1.000000,1.000031 
	C325.666595,1.000021 650.333191,1.000021 974.999878,1.000010 
	C974.999878,322.333252 974.999878,643.666504 974.999939,964.999817 
	C650.333435,964.999878 325.666931,964.999878 1.000195,964.999939 
	C1.000000,760.833313 1.000000,556.666687 1.000000,352.000000 
M76.994308,729.500000 
	C76.994308,777.252747 76.994308,825.005432 76.994308,872.626343 
	C344.369690,872.626343 611.093140,872.626343 877.686401,872.626343 
	C877.686401,605.578003 877.686401,338.850616 877.686401,72.278633 
	C610.638794,72.278633 343.910522,72.278633 76.994308,72.278633 
	C76.994308,291.224792 76.994308,509.862396 76.994308,729.500000 
z"/>
<path fill="#FCFCFB" opacity="1.000000" stroke="none" 
	d="
M76.994308,729.000000 
	C76.994308,509.862396 76.994308,291.224792 76.994308,72.278633 
	C343.910522,72.278633 610.638794,72.278633 877.686401,72.278633 
	C877.686401,338.850616 877.686401,605.578003 877.686401,872.626343 
	C611.093140,872.626343 344.369690,872.626343 76.994308,872.626343 
	C76.994308,825.005432 76.994308,777.252747 76.994308,729.000000 
M743.499695,843.371826 
	C778.407349,843.371826 813.315002,843.371826 848.116150,843.371826 
	C848.116150,595.629883 848.116150,348.678833 848.116150,101.499359 
	C600.950256,101.499359 354.050171,101.499359 106.884071,101.499359 
	C106.884071,348.796112 106.884071,595.864807 106.884071,843.371887 
	C318.924286,843.371887 530.711975,843.371887 743.499695,843.371826 
z"/>
<path fill="#000000" opacity="1.000000" stroke="none" 
	d="
M742.999695,843.371826 
	C530.711975,843.371887 318.924286,843.371887 106.884071,843.371887 
	C106.884071,595.864807 106.884071,348.796112 106.884071,101.499359 
	C354.050171,101.499359 600.950256,101.499359 848.116150,101.499359 
	C848.116150,348.678833 848.116150,595.629883 848.116150,843.371826 
	C813.315002,843.371826 778.407349,843.371826 742.999695,843.371826 
M678.348450,788.935730 
	C681.432312,789.501465 682.386108,788.249146 682.218994,785.150513 
	C681.955627,780.264648 682.148926,775.354126 682.148926,768.956726 
	C687.969238,777.661621 694.277771,783.557251 702.581726,787.170654 
	C722.992615,796.052246 748.302246,790.298584 763.702454,773.179260 
	C782.242432,752.569824 785.156494,718.514893 771.146851,692.314880 
	C751.877014,656.277527 705.220581,656.918762 688.046326,685.158508 
	C687.965942,685.290649 687.532837,685.208313 686.827087,685.255127 
	C686.827087,663.351685 686.827087,641.475952 686.827087,619.630615 
	C674.321411,619.630615 662.255737,619.630615 650.242554,619.630615 
	C650.242554,676.172363 650.242554,732.392029 650.242554,788.935791 
	C659.459717,788.935791 668.418579,788.935791 678.348450,788.935730 
M587.067871,625.318848 
	C573.191589,622.362244 559.297180,622.092529 545.478882,625.499817 
	C497.238647,637.394348 470.802856,689.794800 490.127655,736.914612 
	C516.636841,801.552429 585.839539,801.352905 621.714844,769.282104 
	C627.050415,764.512390 631.243896,758.879517 633.760376,751.850403 
	C623.385010,745.739136 613.283936,739.789490 603.140808,733.815002 
	C591.180115,760.945496 546.988708,766.662598 529.639465,734.283508 
	C519.851440,716.015991 519.757446,697.053223 529.275818,678.772095 
	C541.832642,654.655518 574.973755,649.265198 594.547424,667.747314 
	C597.957031,670.966736 600.455383,675.151245 603.508972,679.062134 
	C612.923828,672.474915 622.419800,665.831055 632.157043,659.018311 
	C621.999634,641.280334 607.114197,630.556702 587.067871,625.318848 
z"/>
<path fill="#FEFEFD" opacity="1.000000" stroke="none" 
	d="
M677.862915,788.935791 
	C668.418579,788.935791 659.459717,788.935791 650.242554,788.935791 
	C650.242554,732.392029 650.242554,676.172363 650.242554,619.630615 
	C662.255737,619.630615 674.321411,619.630615 686.827087,619.630615 
	C686.827087,641.475952 686.827087,663.351685 686.827087,685.255127 
	C687.532837,685.208313 687.965942,685.290649 688.046326,685.158508 
	C705.220581,656.918762 751.877014,656.277527 771.146851,692.314880 
	C785.156494,718.514893 782.242432,752.569824 763.702454,773.179260 
	C748.302246,790.298584 722.992615,796.052246 702.581726,787.170654 
	C694.277771,783.557251 687.969238,777.661621 682.148926,768.956726 
	C682.148926,775.354126 681.955627,780.264648 682.218994,785.150513 
	C682.386108,788.249146 681.432312,789.501465 677.862915,788.935791 
M731.420044,752.963745 
	C741.146057,743.699097 743.661621,732.316345 740.824768,719.594971 
	C737.529602,704.818604 724.889282,694.713684 712.126587,696.301270 
	C698.020752,698.055908 687.053406,710.862366 687.053406,725.579041 
	C687.053406,729.076233 687.389282,732.612732 686.986267,736.062866 
	C686.028320,744.263123 690.281982,749.655518 696.260498,754.124207 
	C706.978821,762.135437 719.315857,761.821594 731.420044,752.963745 
z"/>
<path fill="#FDFDFC" opacity="1.000000" stroke="none" 
	d="
M587.460754,625.458679 
	C607.114197,630.556702 621.999634,641.280334 632.157043,659.018311 
	C622.419800,665.831055 612.923828,672.474915 603.508972,679.062134 
	C600.455383,675.151245 597.957031,670.966736 594.547424,667.747314 
	C574.973755,649.265198 541.832642,654.655518 529.275818,678.772095 
	C519.757446,697.053223 519.851440,716.015991 529.639465,734.283508 
	C546.988708,766.662598 591.180115,760.945496 603.140808,733.815002 
	C613.283936,739.789490 623.385010,745.739136 633.760376,751.850403 
	C631.243896,758.879517 627.050415,764.512390 621.714844,769.282104 
	C585.839539,801.352905 516.636841,801.552429 490.127655,736.914612 
	C470.802856,689.794800 497.238647,637.394348 545.478882,625.499817 
	C559.297180,622.092529 573.191589,622.362244 587.460754,625.458679 
z"/>
<path fill="#020202" opacity="1.000000" stroke="none" 
	d="
M731.138611,753.190186 
	C719.315857,761.821594 706.978821,762.135437 696.260498,754.124207 
	C690.281982,749.655518 686.028320,744.263123 686.986267,736.062866 
	C687.389282,732.612732 687.053406,729.076233 687.053406,725.579041 
	C687.053406,710.862366 698.020752,698.055908 712.126587,696.301270 
	C724.889282,694.713684 737.529602,704.818604 740.824768,719.594971 
	C743.661621,732.316345 741.146057,743.699097 731.138611,753.190186 
z"/>
</svg>