<svg version="1.2" xmlns="http://www.w3.org/2000/svg" viewBox="0 0 1537 1547" width="1537" height="1547">
	<title>DVzbJckK_400x400-svg</title>
	<style>
		.s0 { fill: #eb2d2f } 
	</style>
	<path id="Layer" class="s0" d="m498.1 51.1c152.5-58.5 323.7-66 481-22.4 144.7 39.8 276.9 123.3 375.4 236.5 96.2 109.9 160.2 247.7 181.8 392.3-353.2 0.1-706.4-0.1-1059.6 0q0 120.7 0 241.4c134.7 0.1 269.4 0 404.1 0.1 0 213.2 0.1 426.4 0 639.7-142 20.1-289.6 0.1-420.7-58.4-153.9-67.9-284-187.8-364.6-335.4-71.9-130.3-104-281.7-92.6-430 9.9-136.4 57.2-269.7 135.3-381.8 88.1-127.3 215.1-227.2 359.9-282zm670.1 847.8c122.2 0 244.3 0 366.5 0.1-34.9 221.9-173.3 424.2-366.6 538.4 0.1-179.5-0.1-359 0.1-538.5z"/>
</svg>